<?xml version="1.0" standalone="no"?>
<!DOCTYPE svg PUBLIC "-//W3C//DTD SVG 20010904//EN"
 "http://www.w3.org/TR/2001/REC-SVG-20010904/DTD/svg10.dtd">
<svg version="1.0" xmlns="http://www.w3.org/2000/svg"
 width="720.000000pt" height="720.000000pt" viewBox="0 0 720.000000 720.000000"
 preserveAspectRatio="xMidYMid meet">
<metadata>
Created by potrace 1.11, written by Peter Selinger 2001-2013
</metadata>
<g transform="translate(0.000000,720.000000) scale(0.100000,-0.100000)"
fill="#000000" stroke="none">
<path d="M5784 6646 c-44 -24 -92 -51 -107 -61 -15 -9 -27 -14 -27 -10 0 5 -8
2 -17 -6 -21 -16 -24 -18 -158 -89 -55 -29 -129 -69 -165 -88 -103 -56 -168
-90 -280 -149 -58 -31 -109 -59 -115 -63 -5 -4 -52 -29 -103 -55 l-93 -49 39
-35 c22 -20 51 -45 64 -56 48 -39 131 -110 154 -133 13 -13 24 -21 24 -18 0 3
10 -5 23 -17 12 -12 46 -42 76 -67 30 -25 61 -52 70 -61 9 -8 57 -49 106 -90
50 -41 95 -78 101 -84 20 -19 119 -103 162 -139 24 -20 47 -34 50 -32 12 6 75
34 152 66 41 17 86 36 100 42 14 6 34 14 45 19 33 13 169 70 190 79 55 24 322
135 400 167 39 15 72 30 75 33 3 3 25 12 50 20 25 7 50 17 55 21 6 4 44 21 85
37 41 17 93 38 115 48 22 10 42 18 45 19 3 1 21 8 40 17 19 8 60 25 90 38 78
31 100 42 100 50 0 3 -28 20 -62 38 -35 17 -85 45 -113 60 -27 16 -79 45 -115
65 -106 59 -261 145 -320 178 -30 17 -84 47 -120 67 -36 19 -81 44 -100 55
-19 11 -57 33 -85 48 -27 15 -111 61 -185 103 -74 42 -142 76 -150 76 -8 -1
-51 -20 -96 -44z"/>
<path d="M3735 6335 c-16 -14 -36 -25 -42 -25 -7 0 -13 -4 -13 -10 0 -5 -6
-10 -13 -10 -7 0 -22 -8 -33 -17 -11 -10 -35 -27 -54 -37 -19 -11 -44 -28 -54
-38 -11 -10 -23 -18 -27 -18 -4 0 -43 -23 -86 -51 -43 -28 -98 -64 -123 -80
-25 -16 -49 -32 -55 -37 -5 -4 -45 -29 -87 -56 -80 -49 -89 -63 -64 -93 41
-51 86 -114 86 -122 0 -5 4 -11 8 -13 4 -1 42 -50 82 -108 41 -58 78 -106 82
-108 5 -2 8 -8 8 -13 0 -6 13 -27 28 -47 16 -20 41 -54 56 -75 19 -26 31 -35
39 -29 7 5 75 42 152 83 77 40 174 91 217 114 120 63 308 161 368 192 30 15
57 31 58 36 2 4 9 7 16 7 7 0 21 6 31 14 17 12 -3 34 -259 290 -152 152 -280
276 -284 276 -4 -1 -20 -12 -37 -25z"/>
<path d="M2450 6110 c-30 -21 -60 -42 -66 -47 -5 -4 -17 -12 -26 -18 -25 -16
-162 -109 -173 -118 -17 -13 -143 -101 -160 -112 -17 -11 -12 -26 88 -245 26
-58 59 -130 86 -191 l17 -37 94 59 c52 32 109 67 125 78 114 73 358 221 365
221 6 0 -23 51 -62 113 -148 232 -218 337 -225 336 -5 0 -33 -18 -63 -39z"/>
<path d="M1625 5965 c-33 -25 -75 -57 -94 -72 -19 -16 -50 -39 -70 -52 -20
-14 -38 -27 -41 -31 -3 -3 -29 -23 -57 -44 -29 -21 -53 -43 -53 -49 0 -7 19
-82 41 -167 22 -85 42 -162 44 -170 2 -8 4 -21 4 -28 1 -8 350 214 430 274 2
2 -7 32 -20 66 -13 35 -24 65 -24 68 -1 3 -9 22 -18 44 -9 21 -17 44 -17 51 0
6 -3 15 -7 19 -5 4 -8 11 -8 14 -1 11 -38 106 -44 114 -3 4 -33 -13 -66 -37z"/>
<path d="M1165 5218 c-33 -24 -107 -78 -164 -121 -57 -42 -108 -78 -114 -80
-10 -3 -7 -38 22 -237 15 -103 23 -164 25 -182 1 -10 5 -21 9 -24 3 -4 54 23
112 60 59 36 111 66 116 66 5 0 9 3 9 8 0 4 9 12 19 17 11 6 42 24 71 40 58
34 57 27 24 175 -17 77 -22 102 -28 144 -2 13 -7 33 -10 44 -4 11 -9 33 -11
48 -2 16 -8 42 -12 57 l-9 29 -59 -44z"/>
<path d="M1732 5092 c-213 -135 -232 -149 -228 -172 2 -14 5 -25 6 -25 1 0 3
-7 5 -15 6 -22 10 -41 50 -190 44 -164 39 -143 55 -214 8 -32 19 -60 26 -63 6
-2 129 55 273 127 240 120 261 133 256 153 -6 20 -29 84 -58 162 -7 17 -12 33
-13 38 -1 4 -3 9 -4 12 -1 3 -3 8 -5 13 -1 4 -7 20 -13 35 -7 16 -12 30 -12
33 0 14 -93 254 -99 254 -3 0 -111 -67 -239 -148z"/>
<path d="M3020 5178 c-53 -29 -134 -71 -440 -231 -79 -41 -146 -80 -148 -86
-2 -7 5 -33 16 -59 11 -26 64 -150 117 -277 120 -285 157 -369 160 -373 2 -3
86 28 135 50 14 6 34 14 45 19 11 4 49 20 85 35 36 14 76 31 90 37 14 6 27 11
30 12 3 1 16 6 30 12 24 11 362 150 387 160 8 3 1 22 -22 59 -19 30 -35 59
-35 64 0 6 -4 10 -10 10 -5 0 -10 4 -10 9 0 12 -63 115 -72 119 -5 2 -8 8 -8
12 0 5 -40 75 -90 156 -49 80 -90 150 -90 155 0 5 -4 9 -10 9 -5 0 -10 4 -10
9 0 17 -75 131 -85 130 -5 0 -35 -14 -65 -31z"/>
<path d="M4954 5162 c-5 -5 -40 -21 -79 -37 -38 -16 -98 -41 -133 -57 -34 -15
-65 -28 -68 -28 -3 0 -25 -9 -49 -20 -24 -11 -156 -67 -292 -125 -136 -58
-257 -110 -268 -115 -11 -5 -54 -23 -95 -41 -41 -17 -76 -32 -77 -33 -3 -2 45
-72 87 -127 19 -26 42 -57 50 -69 8 -12 21 -28 28 -36 6 -7 12 -17 12 -22 0
-6 3 -12 8 -14 6 -3 300 -403 327 -445 6 -9 16 -24 22 -32 24 -31 118 -159
133 -181 46 -68 42 -66 104 -47 32 10 65 20 74 22 9 2 145 42 302 90 157 47
292 87 300 89 8 1 35 9 60 16 25 8 48 14 53 16 4 1 8 2 10 4 1 1 9 3 17 5 8 2
101 29 205 60 105 32 195 58 200 59 31 7 101 30 108 37 7 5 -955 979 -1014
1026 -9 7 -20 9 -25 5z"/>
<path d="M620 4398 c-85 -54 -159 -99 -164 -101 -9 -3 -9 -43 0 -302 3 -82 5
-161 5 -174 -1 -31 8 -44 22 -33 11 8 153 84 287 153 56 29 61 36 55 79 -7 57
-16 151 -20 210 -9 121 -23 263 -28 265 -1 1 -72 -43 -157 -97z"/>
<path d="M1360 4299 c-41 -21 -80 -42 -86 -47 -6 -5 -21 -13 -34 -17 -13 -4
-28 -12 -34 -17 -6 -5 -56 -33 -111 -62 l-100 -53 1 -39 c1 -35 9 -119 19
-184 1 -14 6 -50 10 -80 3 -30 8 -66 9 -80 24 -187 23 -179 25 -215 2 -51 14
-61 53 -43 18 9 103 44 188 78 85 34 166 67 180 73 14 5 28 10 33 9 4 -1 7 2
7 6 0 4 10 8 22 9 32 3 36 17 22 81 -6 31 -19 93 -29 137 -9 44 -19 91 -21
105 -2 14 -6 35 -9 47 -3 13 -5 24 -6 25 0 2 -4 21 -9 43 -6 22 -12 54 -16 70
-3 17 -13 66 -22 111 l-17 80 -75 -37z"/>
<path d="M2360 4050 c-19 -12 -250 -110 -270 -115 -8 -2 -28 -10 -45 -19 -25
-12 -77 -35 -95 -41 -9 -3 -44 -18 -96 -41 l-52 -22 14 -58 c8 -33 16 -68 18
-79 2 -11 18 -78 36 -150 17 -71 51 -213 76 -315 24 -102 47 -196 51 -210 3
-14 7 -29 7 -35 2 -14 76 2 226 49 25 8 90 26 145 41 107 29 117 31 125 34 3
1 57 17 120 36 107 31 115 35 112 57 -2 12 -7 28 -12 33 -4 6 -11 21 -15 35
-4 14 -31 90 -60 170 -30 80 -77 208 -105 285 -28 77 -55 149 -60 160 -5 11
-12 31 -15 45 -4 14 -13 39 -20 55 -7 17 -17 44 -22 60 -10 31 -36 42 -63 25z"/>
<path d="M273 3726 c-23 -13 -91 -50 -150 -81 l-109 -58 0 -51 c-1 -28 -4
-160 -7 -293 l-7 -242 63 26 c34 14 82 34 107 45 55 24 95 41 135 58 29 12 30
15 28 69 -2 65 -14 507 -14 534 0 21 4 21 -46 -7z"/>
<path d="M3870 3585 c-96 -29 -301 -89 -455 -134 -154 -45 -292 -87 -308 -93
-31 -12 -31 -19 9 -103 12 -27 59 -135 104 -240 45 -104 88 -203 95 -220 8
-16 41 -95 75 -175 33 -80 69 -163 80 -185 10 -22 46 -107 81 -188 34 -81 65
-150 69 -152 4 -3 32 0 61 5 30 5 77 12 104 14 28 3 60 7 72 10 12 3 53 8 90
11 37 4 71 9 75 12 5 2 29 6 55 8 48 4 82 9 138 19 17 3 53 8 80 11 28 3 65 7
83 10 76 12 100 15 147 20 28 4 57 8 65 10 8 3 44 7 78 10 35 2 66 7 70 9 4 2
39 7 77 11 39 4 71 8 73 10 3 3 -36 69 -143 240 -41 66 -89 146 -107 178 -18
31 -36 57 -40 57 -5 0 -8 4 -8 9 0 5 -46 83 -101 173 -56 89 -114 183 -129
208 -50 83 -292 475 -304 491 -10 14 -30 10 -186 -36z"/>
<path d="M846 3403 c-4 -5 -11 -8 -14 -9 -4 0 -20 -6 -35 -12 -16 -7 -31 -12
-34 -12 -3 0 -20 -7 -39 -15 -30 -13 -64 -28 -129 -55 -11 -4 -36 -14 -55 -21
-40 -14 -72 -38 -65 -49 2 -4 7 -59 10 -121 10 -231 17 -397 20 -492 2 -54 6
-101 9 -104 5 -5 162 37 339 92 42 13 77 21 77 18 0 -3 7 0 15 7 8 7 13 15 10
19 -2 4 -6 41 -10 82 -7 89 -10 126 -19 199 -3 30 -8 81 -11 113 -3 31 -7 72
-9 91 -3 18 -8 68 -11 110 -4 43 -9 85 -10 95 -2 9 -4 28 -4 44 -1 26 -19 36
-35 20z"/>
<path d="M1680 2923 c-8 -2 -22 -7 -30 -10 -8 -3 -19 -7 -25 -8 -5 -1 -64 -19
-130 -40 -320 -100 -341 -107 -330 -124 2 -4 6 -34 10 -67 3 -32 8 -72 10 -89
3 -16 7 -46 9 -65 8 -60 17 -132 28 -215 5 -44 11 -91 13 -105 4 -40 15 -131
21 -175 12 -83 14 -101 19 -145 3 -25 7 -54 9 -65 3 -11 5 -28 5 -39 1 -16 7
-18 54 -12 28 3 61 7 72 10 23 4 107 16 150 21 17 2 44 6 60 9 17 3 53 8 80
11 28 3 64 8 80 11 17 3 41 7 55 9 57 7 115 17 117 19 3 3 -19 106 -57 271
-12 50 -23 101 -25 115 -2 14 -11 57 -20 95 -9 39 -18 77 -20 85 -2 8 -9 38
-15 65 -11 48 -15 67 -24 118 -2 12 -9 42 -16 66 -6 25 -13 56 -15 70 -2 14
-4 26 -5 26 -2 0 -6 16 -21 98 -14 67 -20 74 -59 60z"/>
<path d="M3020 2103 c-98 -16 -127 -21 -175 -28 -22 -3 -49 -8 -61 -10 -12 -3
-39 -7 -60 -10 -21 -3 -61 -10 -89 -15 -27 -6 -66 -12 -85 -14 -19 -3 -47 -8
-62 -11 -30 -6 -54 -10 -133 -21 -27 -3 -57 -8 -65 -10 -8 -1 -18 -3 -22 -3
-4 -1 -1 -22 7 -48 8 -27 16 -59 18 -73 2 -14 6 -32 9 -40 6 -15 45 -169 52
-205 3 -11 32 -130 66 -265 34 -135 63 -252 65 -260 2 -8 29 -116 60 -240 31
-124 58 -229 59 -235 26 -125 41 -165 60 -166 12 0 50 -2 86 -4 36 -1 137 -5
225 -9 88 -4 198 -9 245 -11 96 -4 318 -14 458 -20 111 -6 108 -12 57 110 -7
17 -20 53 -29 80 -9 28 -20 59 -25 70 -17 38 -40 101 -105 280 -36 99 -70 188
-76 197 -5 10 -10 25 -10 33 0 8 -4 23 -9 33 -12 21 -91 231 -96 254 -2 9 -13
38 -24 64 -12 26 -21 52 -21 58 0 6 -6 23 -14 37 -7 14 -16 39 -20 55 -4 16
-13 43 -20 59 -22 51 -43 105 -86 225 -23 63 -45 125 -50 137 -11 25 -15 26
-130 6z"/>
</g>
</svg>
