<svg width="26" height="21" viewBox="0 0 26 26" fill="none" xmlns="http://www.w3.org/2000/svg"><path d="M25.3 8.63h-2.5v-2.5a.67.67 0 00-.62-.63h-1.25a.64.64 0 00-.62.63v2.5h-2.5a.64.64 0 00-.63.62v1.25c0 .35.28.63.63.63h2.5v2.5c0 .35.27.62.62.62h1.25c.32 0 .63-.27.63-.63v-2.5h2.5c.31 0 .62-.27.62-.62V9.25a.67.67 0 00-.62-.63zM9.69 10.5a5.01 5.01 0 000-10 5.01 5.01 0 000 10zm3.48 1.25h-.66a6.2 6.2 0 01-2.82.63c-1.01 0-1.99-.2-2.85-.63h-.66a5.27 5.27 0 00-5.24 5.27v1.6c0 1.06.82 1.88 1.88 1.88h13.75c1.01 0 1.87-.82 1.87-1.88v-1.6a5.3 5.3 0 00-5.27-5.27z" fill="#2AA7FF"/></svg>