<svg width="29" height="21" viewBox="0 0 26 26" fill="none" xmlns="http://www.w3.org/2000/svg"><path d="M27.72 9.7L25.1 7.06a2.8 2.8 0 00-2.01-.8h-1.65V1.93c0-.76-.67-1.43-1.43-1.43H1.43C.63.5 0 1.17 0 1.93v15c0 2 1.56 3.57 3.57 3.57 1.16 0 2.19-.54 2.86-1.43.62.9 1.65 1.43 2.86 1.43a3.55 3.55 0 003.57-3.57c0-.22-.05-.45-.1-.72h7.28c-.04.27-.04.5-.04.72 0 2 1.56 3.57 3.57 3.57a3.55 3.55 0 003.57-3.57c0-.22-.04-.45-.09-.72h.8c.36 0 .72-.3.72-.71v-3.8a2.8 2.8 0 00-.85-2zM3.57 18.36c-.8 0-1.43-.63-1.43-1.43 0-.76.63-1.43 1.43-1.43.76 0 1.43.67 1.43 1.43 0 .8-.67 1.43-1.43 1.43zm5.72 0c-.8 0-1.43-.63-1.43-1.43 0-.76.62-1.43 1.43-1.43.75 0 1.42.67 1.42 1.43 0 .8-.67 1.43-1.42 1.43zm12.14-10h1.65c.18 0 .36.09.5.22l1.96 1.92h-4.11V8.36zm2.14 10c-.8 0-1.43-.63-1.43-1.43 0-.76.63-1.43 1.43-1.43.76 0 1.43.67 1.43 1.43 0 .8-.67 1.43-1.43 1.43z" fill="#617083"/></svg>