<svg width="25" height="24" viewBox="0 0 25 24" fill="none" xmlns="http://www.w3.org/2000/svg">
<path fill-rule="evenodd" clip-rule="evenodd" d="M13.3471 14.1203C12.2482 15.1527 10.7691 15.7852 9.14223 15.7852C5.74997 15.7852 3 13.0352 3 9.64297C3 6.2507 5.74997 3.50073 9.14223 3.50073C12.5345 3.50073 15.2845 6.2507 15.2845 9.64297C15.2845 10.9711 14.8629 12.2008 14.1464 13.2055C13.9917 13.2775 13.8468 13.3774 13.7191 13.505C13.5409 13.6832 13.4169 13.8952 13.3471 14.1203ZM14.8654 16.7726C13.2988 18.0317 11.3085 18.7852 9.14223 18.7852C4.09312 18.7852 0 14.6921 0 9.64297C0 4.59385 4.09312 0.500732 9.14223 0.500732C14.1914 0.500732 18.2845 4.59385 18.2845 9.64297C18.2845 11.4415 17.7651 13.1187 16.8682 14.5328L23.5646 21.2292C24.1504 21.815 24.1504 22.7647 23.5646 23.3505C22.9788 23.9363 22.0291 23.9363 21.4433 23.3505L14.8654 16.7726Z" fill="#617083"/>
</svg>
