<svg width="26" height="21" viewBox="0 0 26 26" fill="none" xmlns="http://www.w3.org/2000/svg"><path d="M13.43 13c0-.43.12-.82.32-1.17-.2-.04-.4-.08-.59-.08h-.66a6.2 6.2 0 01-2.82.63c-1.01 0-1.99-.2-2.85-.63h-.66a5.27 5.27 0 00-5.24 5.27v1.6c0 1.06.82 1.88 1.88 1.88h10.94c-.2-.35-.32-.78-.32-1.25V13zm-3.75-2.5a5.01 5.01 0 000-10 5.01 5.01 0 000 10zm15 1.25h-1.25V9.87c0-1.71-1.4-3.12-3.12-3.12a3.1 3.1 0 00-3.13 3.13v1.87h-1.25c-.7 0-1.25.59-1.25 1.25v6.25c0 .7.55 1.25 1.25 1.25h8.75c.67 0 1.25-.55 1.25-1.25V13c0-.66-.58-1.25-1.25-1.25zm-3.12 0h-2.5V9.87c0-.66.55-1.24 1.25-1.24.66 0 1.25.58 1.25 1.24v1.88z" fill="#617083"/></svg>