<svg width="18" height="21" viewBox="0 0 18 21" fill="none" xmlns="http://www.w3.org/2000/svg">
<path d="M8.75 10.5C11.4844 10.5 13.75 8.27344 13.75 5.5C13.75 2.76562 11.4844 0.5 8.75 0.5C5.97656 0.5 3.75 2.76562 3.75 5.5C3.75 8.27344 5.97656 10.5 8.75 10.5ZM12.4609 11.7891L10.625 19.25L9.375 13.9375L10.625 11.75H6.875L8.125 13.9375L6.875 19.25L5 11.7891C2.1875 11.9063 0 14.2109 0 17.0234V18.625C0 19.6797 0.820312 20.5 1.875 20.5H15.625C16.6406 20.5 17.5 19.6797 17.5 18.625V17.0234C17.5 14.2109 15.2734 11.9063 12.4609 11.7891Z" fill="#2AA7FF"/>
</svg>
