<svg width="26" height="21" viewBox="0 0 26 26" fill="none" xmlns="http://www.w3.org/2000/svg"><path d="M12.57 5.69l-8.23 6.8v7.3c0 .4.31.71.72.71h5a.7.7 0 00.68-.72v-4.3c0-.35.36-.7.71-.7h2.87c.4 0 .71.35.71.7v4.3c0 .4.36.72.72.72h5.06c.35 0 .71-.31.71-.72v-7.33l-8.28-6.76a.48.48 0 00-.3-.13.5.5 0 00-.37.13zm13.02 4.6l-3.71-3.08V1.04a.54.54 0 00-.54-.54h-2.5a.52.52 0 00-.54.54v3.22L14.27.95A2.44 2.44 0 0012.9.5c-.4 0-1.03.18-1.35.45L.22 10.3a.53.53 0 00-.22.4c0 .14.09.27.13.36l1.17 1.39c.09.09.27.18.4.18a.6.6 0 00.36-.14l10.51-8.63a.5.5 0 01.36-.14c.09 0 .22.05.31.14l10.52 8.63a.6.6 0 00.36.14c.13 0 .3-.1.4-.18l1.16-1.4c.05-.08.14-.21.14-.35a.53.53 0 00-.23-.4z" fill="#2AA7FF"/></svg>