<svg width="45" height="40" fill="none" xmlns="http://www.w3.org/2000/svg"><path d="M34.86 9.11l9.77-4.08L36.76.65l-7.28 3.88 5.38 4.58zM19.13 5.63l2.49 3.48 5.47-2.89-3.48-3.48-4.48 2.89zm-6.58.6l1.3 2.88 3.68-2.29-1.8-2.79-3.18 2.2zm-2.29 8.76l3.39-1.7-1.3-3.58-2.99 1.9.9 3.38zm-2.1-8.27l.6 2.4 2.7-1.8-.9-2.39-2.4 1.8zM5.89 14l2.39-1.49-.6-2.89-2.2 1.6.4 2.78zm-3.1 1.7l.1 3.19 2.3-1.2-.3-3.29-2.1 1.3zM.1 20.07L0 23.76l2.1-.9-.1-3.79-1.9 1zm5.88 5.98l-.5-4.88-2.5 1 .2 4.67 2.8-.8zm3.88-6.38l-.9-4.28-2.78 1.5.5 4.08 3.18-1.3zm2.4 11.26l-1.5-6.78-3.49 1.1.8 6.28 4.18-.6zm2.78-13.85l-3.78 1.6 1.3 5.37 4.57-1.29-2.09-5.68zM23.61 40l-3.99-10.76-5.48.9 2.4 9.56 7.07.3zm-8.47-27.9l1.9 4.48 5.07-2.09-2.79-4.58-4.18 2.2zm4.08 9.46l3.4 7.87 7.96-1.1-5.28-8.56-6.08 1.8zm5.08-8.46l4.49 6.17 8.76-2.59-6.47-6.47-6.78 2.89z" fill="#2AA7FF"/></svg>